<svg preserveAspectRatio="none" overflow="visible" style="display: block;" width="85" height="43" viewBox="0 0 85 43" fill="none" xmlns="http://www.w3.org/2000/svg">
<path id="Vector" d="M8.06205 27.5263C25.7556 -4.43305 53.8412 -4.87124 83.6693 7.61513C84.344 7.89747 84.6123 8.67756 85 9.30915C83.5393 14.2484 80.0696 13.5491 77.4326 16.2476C53.3931 40.8515 42.3609 45.3182 8.42944 37.2317C4.47734 39.1069 3.38541 40.1367 0 43V26.5977L0.82472 26.8441C2.64937 28.9665 2.27895 27.9669 2.38528 30.5724L3.18748 30.5332L2.60068 31.142L2.96142 31.4186L3.46362 30.7266L2.47556 29.5279C3.45667 28.4418 3.14354 28.4051 4.24079 28.033L5.12144 31.3688L6.0455 31.2986L8.06205 27.5263Z" fill="#1897AA"/>
</svg>
